{
  "accessors": [
    {
      "bufferView": 2,
      "componentType": 5126,
      "count": 809,
      "max": [
        10.647700309753418,
        -0.11230000108480453,
        55.2052001953125
      ],
      "min": [
        -11.497900009155273,
        -2.7702999114990234,
        0.46230000257492065
      ],
      "type": "VEC3"
    },
    {
      "bufferView": 2,
      "byteOffset": 9708,
      "componentType": 5126,
      "count": 809,
      "max": [
        0.9999992847442627,
        0.9999997615814209,
        0.9999344348907471
      ],
      "min": [
        -1.0,
        -1.0,
        -0.9999978542327881
      ],
      "type": "VEC3"
    },
    {
      "bufferView": 3,
      "componentType": 5126,
      "count": 809,
      "max": [
        0.9999973773956299,
        0.9999982714653015,
        0.9999951720237732,
        1.0
      ],
      "min": [
        -0.9999988079071045,
        -0.9999997615814209,
        -0.999998927116394,
        -1.0
      ],
      "type": "VEC4"
    },
    {
      "bufferView": 1,
      "componentType": 5126,
      "count": 809,
      "max": [
        0.9390000104904175,
        0.9021999835968018
      ],
      "min": [
        0.0005000000237487257,
        0.026599999517202377
      ],
      "type": "VEC2"
    },
    {
      "bufferView": 0,
      "componentType": 5125,
      "count": 3792,
      "type": "SCALAR"
    },
    {
      "bufferView": 2,
      "byteOffset": 19416,
      "componentType": 5126,
      "count": 1234,
      "max": [
        -5.298600196838379,
        0.41260001063346863,
        34.38420104980469
      ],
      "min": [
        -9.363100051879883,
        -2.7660999298095703,
        32.3672981262207
      ],
      "type": "VEC3"
    },
    {
      "bufferView": 2,
      "byteOffset": 34224,
      "componentType": 5126,
      "count": 1234,
      "max": [
        0.9993675947189331,
        1.0,
        0.999951958656311
      ],
      "min": [
        -0.9996642470359802,
        -1.0,
        -0.9999529123306274
      ],
      "type": "VEC3"
    },
    {
      "bufferView": 3,
      "byteOffset": 12944,
      "componentType": 5126,
      "count": 1234,
      "max": [
        0.9650574922561646,
        0.9965957403182983,
        0.9999362826347351,
        1.0
      ],
      "min": [
        -0.9602876305580139,
        -0.9966092109680176,
        -0.999936580657959,
        1.0
      ],
      "type": "VEC4"
    },
    {
      "bufferView": 1,
      "byteOffset": 6472,
      "componentType": 5126,
      "count": 1234,
      "max": [
        0.9804999828338623,
        0.9959999918937683
      ],
      "min": [
        0.03590000048279762,
        0.005200000014156103
      ],
      "type": "VEC2"
    },
    {
      "bufferView": 0,
      "byteOffset": 15168,
      "componentType": 5125,
      "count": 5652,
      "type": "SCALAR"
    },
    {
      "bufferView": 2,
      "byteOffset": 49032,
      "componentType": 5126,
      "count": 1070,
      "max": [
        12.131699562072754,
        5.6697998046875,
        57.26810073852539
      ],
      "min": [
        -13.252300262451172,
        -2.7945001125335693,
        0.44909998774528503
      ],
      "type": "VEC3"
    },
    {
      "bufferView": 2,
      "byteOffset": 61872,
      "componentType": 5126,
      "count": 1070,
      "max": [
        0.9999958276748657,
        0.9999997615814209,
        0.9999061822891235
      ],
      "min": [
        -0.9999997615814209,
        -1.0,
        -0.9998939037322998
      ],
      "type": "VEC3"
    },
    {
      "bufferView": 3,
      "byteOffset": 32688,
      "componentType": 5126,
      "count": 1070,
      "max": [
        0.9999918341636658,
        0.9999989867210388,
        1.0,
        1.0
      ],
      "min": [
        -0.9989380240440369,
        -0.9999459981918335,
        -1.0,
        -1.0
      ],
      "type": "VEC4"
    },
    {
      "bufferView": 1,
      "byteOffset": 16344,
      "componentType": 5126,
      "count": 1070,
      "max": [
        0.9241999983787537,
        0.9994999766349792
      ],
      "min": [
        0.004900000058114529,
        0.0005000000237487257
      ],
      "type": "VEC2"
    },
    {
      "bufferView": 0,
      "byteOffset": 37776,
      "componentType": 5125,
      "count": 4782,
      "type": "SCALAR"
    }
  ],
  "asset": {
    "extras": {
      "author": "Shedmon (https://sketchfab.com/shedmon)",
      "license": "CC-BY-4.0 (http://creativecommons.org/licenses/by/4.0/)",
      "source": "https://sketchfab.com/3d-models/wooden-door-067b23c6c872454da68b7bad9624463d",
      "title": "Wooden Door"
    },
    "generator": "Sketchfab-13.83.0",
    "version": "2.0"
  },
  "bufferViews": [
    {
      "buffer": 0,
      "byteLength": 56904,
      "name": "floatBufferViews",
      "target": 34963
    },
    {
      "buffer": 0,
      "byteLength": 24904,
      "byteOffset": 56904,
      "byteStride": 8,
      "name": "floatBufferViews",
      "target": 34962
    },
    {
      "buffer": 0,
      "byteLength": 74712,
      "byteOffset": 81808,
      "byteStride": 12,
      "name": "floatBufferViews",
      "target": 34962
    },
    {
      "buffer": 0,
      "byteLength": 49808,
      "byteOffset": 156520,
      "byteStride": 16,
      "name": "floatBufferViews",
      "target": 34962
    }
  ],
  "buffers": [
    {
      "byteLength": 206328,
      "uri": "scene.bin"
    }
  ],
  "images": [
    {
      "uri": "textures/Door_baseColor.png"
    },
    {
      "uri": "textures/Door_metallicRoughness.png"
    },
    {
      "uri": "textures/Door_normal.png"
    },
    {
      "uri": "textures/Hand_baseColor.png"
    },
    {
      "uri": "textures/Hand_metallicRoughness.png"
    },
    {
      "uri": "textures/Hand_normal.png"
    }
  ],
  "materials": [
    {
      "doubleSided": true,
      "name": "Door",
      "normalTexture": {
        "index": 2
      },
      "occlusionTexture": {
        "index": 1
      },
      "pbrMetallicRoughness": {
        "baseColorTexture": {
          "index": 0
        },
        "metallicRoughnessTexture": {
          "index": 1
        }
      }
    },
    {
      "doubleSided": true,
      "name": "Hand",
      "normalTexture": {
        "index": 5
      },
      "occlusionTexture": {
        "index": 4
      },
      "pbrMetallicRoughness": {
        "baseColorTexture": {
          "index": 3
        },
        "metallicRoughnessTexture": {
          "index": 4
        }
      }
    }
  ],
  "meshes": [
    {
      "name": "door_Door_0",
      "primitives": [
        {
          "attributes": {
            "NORMAL": 1,
            "POSITION": 0,
            "TANGENT": 2,
            "TEXCOORD_0": 3
          },
          "indices": 4,
          "material": 0,
          "mode": 4
        }
      ]
    },
    {
      "name": "door_Hand_0",
      "primitives": [
        {
          "attributes": {
            "NORMAL": 6,
            "POSITION": 5,
            "TANGENT": 7,
            "TEXCOORD_0": 8
          },
          "indices": 9,
          "material": 1,
          "mode": 4
        }
      ]
    },
    {
      "name": "rama_Door_0",
      "primitives": [
        {
          "attributes": {
            "NORMAL": 11,
            "POSITION": 10,
            "TANGENT": 12,
            "TEXCOORD_0": 13
          },
          "indices": 14,
          "material": 0,
          "mode": 4
        }
      ]
    }
  ],
  "nodes": [
    {
      "children": [
        1
      ],
      "matrix": [
        1.0,
        0.0,
        0.0,
        0.0,
        0.0,
        2.220446049250313e-16,
        -1.0,
        0.0,
        0.0,
        1.0,
        2.220446049250313e-16,
        0.0,
        0.0,
        0.0,
        0.0,
        1.0
      ],
      "name": "Sketchfab_model"
    },
    {
      "children": [
        2
      ],
      "matrix": [
        1.0,
        0.0,
        0.0,
        0.0,
        0.0,
        0.0,
        1.0,
        0.0,
        0.0,
        -1.0,
        0.0,
        0.0,
        0.0,
        0.0,
        0.0,
        1.0
      ],
      "name": "b26f8fa7224f4d3e8451b8c23e19f46c.fbx"
    },
    {
      "children": [
        3,
        6
      ],
      "name": "RootNode"
    },
    {
      "children": [
        4,
        5
      ],
      "matrix": [
        1.0,
        0.0,
        0.0,
        0.0,
        0.0,
        2.220446049250313e-16,
        -1.0,
        0.0,
        0.0,
        1.0,
        2.220446049250313e-16,
        0.0,
        0.0,
        0.0,
        0.0,
        1.0
      ],
      "name": "door"
    },
    {
      "mesh": 0,
      "name": "door_Door_0"
    },
    {
      "mesh": 1,
      "name": "door_Hand_0"
    },
    {
      "children": [
        7
      ],
      "matrix": [
        1.0,
        0.0,
        0.0,
        0.0,
        0.0,
        2.220446049250313e-16,
        -1.0,
        0.0,
        0.0,
        1.0,
        2.220446049250313e-16,
        0.0,
        0.0,
        0.0,
        0.0,
        1.0
      ],
      "name": "rama"
    },
    {
      "mesh": 2,
      "name": "rama_Door_0"
    }
  ],
  "samplers": [
    {
      "magFilter": 9729,
      "minFilter": 9987,
      "wrapS": 10497,
      "wrapT": 10497
    }
  ],
  "scene": 0,
  "scenes": [
    {
      "name": "Sketchfab_Scene",
      "nodes": [
        0
      ]
    }
  ],
  "textures": [
    {
      "sampler": 0,
      "source": 0
    },
    {
      "sampler": 0,
      "source": 1
    },
    {
      "sampler": 0,
      "source": 2
    },
    {
      "sampler": 0,
      "source": 3
    },
    {
      "sampler": 0,
      "source": 4
    },
    {
      "sampler": 0,
      "source": 5
    }
  ]
}
