{
  "accessors": [
    {
      "bufferView": 2,
      "componentType": 5126,
      "count": 1584,
      "max": [
        0.5721954703330994,
        0.8957397937774658,
        2.1000335216522217
      ],
      "min": [
        -0.06925177574157715,
        -0.04435443878173828,
        0.0
      ],
      "type": "VEC3"
    },
    {
      "bufferView": 2,
      "byteOffset": 19008,
      "componentType": 5126,
      "count": 1584,
      "max": [
        1.0,
        1.0,
        1.0
      ],
      "min": [
        -1.0,
        -1.0,
        -1.0
      ],
      "type": "VEC3"
    },
    {
      "bufferView": 3,
      "componentType": 5126,
      "count": 1584,
      "max": [
        1.0,
        1.0,
        0.9999905228614807,
        1.0
      ],
      "min": [
        -0.9999710321426392,
        -1.0,
        -1.0,
        -1.0
      ],
      "type": "VEC4"
    },
    {
      "bufferView": 1,
      "componentType": 5126,
      "count": 1584,
      "max": [
        0.999500036239624,
        0.9933650493621826
      ],
      "min": [
        0.0005000000237487257,
        0.0005000000237487257
      ],
      "type": "VEC2"
    },
    {
      "bufferView": 1,
      "byteOffset": 12672,
      "componentType": 5126,
      "count": 1584,
      "max": [
        0.999500036239624,
        0.9933650493621826
      ],
      "min": [
        0.0005000000237487257,
        0.0005000000237487257
      ],
      "type": "VEC2"
    },
    {
      "bufferView": 1,
      "byteOffset": 25344,
      "componentType": 5126,
      "count": 1584,
      "max": [
        0.999500036239624,
        0.9933650493621826
      ],
      "min": [
        0.0005000000237487257,
        0.0005000000237487257
      ],
      "type": "VEC2"
    },
    {
      "bufferView": 1,
      "byteOffset": 38016,
      "componentType": 5126,
      "count": 1584,
      "max": [
        0.999500036239624,
        0.9933650493621826
      ],
      "min": [
        0.0005000000237487257,
        0.0005000000237487257
      ],
      "type": "VEC2"
    },
    {
      "bufferView": 1,
      "byteOffset": 50688,
      "componentType": 5126,
      "count": 1584,
      "max": [
        0.999500036239624,
        0.9933650493621826
      ],
      "min": [
        0.0005000000237487257,
        0.0005000000237487257
      ],
      "type": "VEC2"
    },
    {
      "bufferView": 1,
      "byteOffset": 63360,
      "componentType": 5126,
      "count": 1584,
      "max": [
        0.999500036239624,
        0.9933650493621826
      ],
      "min": [
        0.0005000000237487257,
        0.0005000000237487257
      ],
      "type": "VEC2"
    },
    {
      "bufferView": 1,
      "byteOffset": 76032,
      "componentType": 5126,
      "count": 1584,
      "max": [
        0.999500036239624,
        0.9933650493621826
      ],
      "min": [
        0.0005000000237487257,
        0.0005000000237487257
      ],
      "type": "VEC2"
    },
    {
      "bufferView": 1,
      "byteOffset": 88704,
      "componentType": 5126,
      "count": 1584,
      "max": [
        0.999500036239624,
        0.9933650493621826
      ],
      "min": [
        0.0005000000237487257,
        0.0005000000237487257
      ],
      "type": "VEC2"
    },
    {
      "bufferView": 1,
      "byteOffset": 101376,
      "componentType": 5126,
      "count": 1584,
      "max": [
        0.999500036239624,
        0.9933650493621826
      ],
      "min": [
        0.0005000000237487257,
        0.0005000000237487257
      ],
      "type": "VEC2"
    },
    {
      "bufferView": 1,
      "byteOffset": 114048,
      "componentType": 5126,
      "count": 1584,
      "max": [
        0.999500036239624,
        0.9933650493621826
      ],
      "min": [
        0.0005000000237487257,
        0.0005000000237487257
      ],
      "type": "VEC2"
    },
    {
      "bufferView": 0,
      "componentType": 5125,
      "count": 6792,
      "type": "SCALAR"
    },
    {
      "bufferView": 2,
      "byteOffset": 38016,
      "componentType": 5126,
      "count": 65532,
      "max": [
        0.033477962017059326,
        0.39443346858024597,
        0.037165939807891846
      ],
      "min": [
        -0.015145987272262573,
        -0.3981878161430359,
        -1.9491562843322754
      ],
      "type": "VEC3"
    },
    {
      "bufferView": 2,
      "byteOffset": 824400,
      "componentType": 5126,
      "count": 65532,
      "max": [
        1.0,
        1.0,
        1.0
      ],
      "min": [
        -1.0,
        -1.0,
        -1.0
      ],
      "type": "VEC3"
    },
    {
      "bufferView": 1,
      "byteOffset": 126720,
      "componentType": 5126,
      "count": 65532,
      "max": [
        0.999500036239624,
        0.9861635565757751
      ],
      "min": [
        0.0005000000237487257,
        0.0005000000237487257
      ],
      "type": "VEC2"
    },
    {
      "bufferView": 1,
      "byteOffset": 650976,
      "componentType": 5126,
      "count": 65532,
      "max": [
        0.999500036239624,
        0.9861635565757751
      ],
      "min": [
        0.0005000000237487257,
        0.0005000000237487257
      ],
      "type": "VEC2"
    },
    {
      "bufferView": 1,
      "byteOffset": 1175232,
      "componentType": 5126,
      "count": 65532,
      "max": [
        0.999500036239624,
        0.9861635565757751
      ],
      "min": [
        0.0005000000237487257,
        0.0005000000237487257
      ],
      "type": "VEC2"
    },
    {
      "bufferView": 1,
      "byteOffset": 1699488,
      "componentType": 5126,
      "count": 65532,
      "max": [
        0.999500036239624,
        0.9861635565757751
      ],
      "min": [
        0.0005000000237487257,
        0.0005000000237487257
      ],
      "type": "VEC2"
    },
    {
      "bufferView": 1,
      "byteOffset": 2223744,
      "componentType": 5126,
      "count": 65532,
      "max": [
        0.999500036239624,
        0.9861635565757751
      ],
      "min": [
        0.0005000000237487257,
        0.0005000000237487257
      ],
      "type": "VEC2"
    },
    {
      "bufferView": 1,
      "byteOffset": 2748000,
      "componentType": 5126,
      "count": 65532,
      "max": [
        0.999500036239624,
        0.9861635565757751
      ],
      "min": [
        0.0005000000237487257,
        0.0005000000237487257
      ],
      "type": "VEC2"
    },
    {
      "bufferView": 1,
      "byteOffset": 3272256,
      "componentType": 5126,
      "count": 65532,
      "max": [
        0.999500036239624,
        0.9861635565757751
      ],
      "min": [
        0.0005000000237487257,
        0.0005000000237487257
      ],
      "type": "VEC2"
    },
    {
      "bufferView": 1,
      "byteOffset": 3796512,
      "componentType": 5126,
      "count": 65532,
      "max": [
        0.999500036239624,
        0.9861635565757751
      ],
      "min": [
        0.0005000000237487257,
        0.0005000000237487257
      ],
      "type": "VEC2"
    },
    {
      "bufferView": 1,
      "byteOffset": 4320768,
      "componentType": 5126,
      "count": 65532,
      "max": [
        0.999500036239624,
        0.9861635565757751
      ],
      "min": [
        0.0005000000237487257,
        0.0005000000237487257
      ],
      "type": "VEC2"
    },
    {
      "bufferView": 1,
      "byteOffset": 4845024,
      "componentType": 5126,
      "count": 65532,
      "max": [
        0.999500036239624,
        0.9861635565757751
      ],
      "min": [
        0.0005000000237487257,
        0.0005000000237487257
      ],
      "type": "VEC2"
    },
    {
      "bufferView": 0,
      "byteOffset": 27168,
      "componentType": 5125,
      "count": 302637,
      "type": "SCALAR"
    },
    {
      "bufferView": 2,
      "byteOffset": 1610784,
      "componentType": 5126,
      "count": 21345,
      "max": [
        0.032059818506240845,
        0.350718230009079,
        -0.13307762145996094
      ],
      "min": [
        0.02554038166999817,
        -0.34879687428474426,
        -1.6003403663635254
      ],
      "type": "VEC3"
    },
    {
      "bufferView": 2,
      "byteOffset": 1866924,
      "componentType": 5126,
      "count": 21345,
      "max": [
        0.40838655829429626,
        0.9999772906303406,
        0.999893307685852
      ],
      "min": [
        -0.9999972581863403,
        -0.9999772906303406,
        -0.999893307685852
      ],
      "type": "VEC3"
    },
    {
      "bufferView": 1,
      "byteOffset": 5369280,
      "componentType": 5126,
      "count": 21345,
      "max": [
        0.999500036239624,
        0.9198819994926453
      ],
      "min": [
        0.6642749905586243,
        0.5488358736038208
      ],
      "type": "VEC2"
    },
    {
      "bufferView": 1,
      "byteOffset": 5540040,
      "componentType": 5126,
      "count": 21345,
      "max": [
        0.999500036239624,
        0.9198819994926453
      ],
      "min": [
        0.6642749905586243,
        0.5488358736038208
      ],
      "type": "VEC2"
    },
    {
      "bufferView": 1,
      "byteOffset": 5710800,
      "componentType": 5126,
      "count": 21345,
      "max": [
        0.999500036239624,
        0.9198819994926453
      ],
      "min": [
        0.6642749905586243,
        0.5488358736038208
      ],
      "type": "VEC2"
    },
    {
      "bufferView": 1,
      "byteOffset": 5881560,
      "componentType": 5126,
      "count": 21345,
      "max": [
        0.999500036239624,
        0.9198819994926453
      ],
      "min": [
        0.6642749905586243,
        0.5488358736038208
      ],
      "type": "VEC2"
    },
    {
      "bufferView": 1,
      "byteOffset": 6052320,
      "componentType": 5126,
      "count": 21345,
      "max": [
        0.999500036239624,
        0.9198819994926453
      ],
      "min": [
        0.6642749905586243,
        0.5488358736038208
      ],
      "type": "VEC2"
    },
    {
      "bufferView": 1,
      "byteOffset": 6223080,
      "componentType": 5126,
      "count": 21345,
      "max": [
        0.999500036239624,
        0.9198819994926453
      ],
      "min": [
        0.6642749905586243,
        0.5488358736038208
      ],
      "type": "VEC2"
    },
    {
      "bufferView": 1,
      "byteOffset": 6393840,
      "componentType": 5126,
      "count": 21345,
      "max": [
        0.999500036239624,
        0.9198819994926453
      ],
      "min": [
        0.6642749905586243,
        0.5488358736038208
      ],
      "type": "VEC2"
    },
    {
      "bufferView": 1,
      "byteOffset": 6564600,
      "componentType": 5126,
      "count": 21345,
      "max": [
        0.999500036239624,
        0.9198819994926453
      ],
      "min": [
        0.6642749905586243,
        0.5488358736038208
      ],
      "type": "VEC2"
    },
    {
      "bufferView": 1,
      "byteOffset": 6735360,
      "componentType": 5126,
      "count": 21345,
      "max": [
        0.999500036239624,
        0.9198819994926453
      ],
      "min": [
        0.6642749905586243,
        0.5488358736038208
      ],
      "type": "VEC2"
    },
    {
      "bufferView": 1,
      "byteOffset": 6906120,
      "componentType": 5126,
      "count": 21345,
      "max": [
        0.999500036239624,
        0.9198819994926453
      ],
      "min": [
        0.6642749905586243,
        0.5488358736038208
      ],
      "type": "VEC2"
    },
    {
      "bufferView": 0,
      "byteOffset": 1237716,
      "componentType": 5125,
      "count": 98811,
      "type": "SCALAR"
    }
  ],
  "asset": {
    "extras": {
      "author": "SebastianSosnowski (https://sketchfab.com/SebastianSosnowski)",
      "license": "CC-BY-4.0 (http://creativecommons.org/licenses/by/4.0/)",
      "source": "https://sketchfab.com/3d-models/old-wardrobe-6f58d3b454fd42dd91df15e5f4df9966",
      "title": "Old Wardrobe"
    },
    "generator": "Sketchfab-14.45.0",
    "version": "2.0"
  },
  "bufferViews": [
    {
      "buffer": 0,
      "byteLength": 1632960,
      "name": "floatBufferViews",
      "target": 34963
    },
    {
      "buffer": 0,
      "byteLength": 7076880,
      "byteOffset": 1632960,
      "byteStride": 8,
      "name": "floatBufferViews",
      "target": 34962
    },
    {
      "buffer": 0,
      "byteLength": 2123064,
      "byteOffset": 8709840,
      "byteStride": 12,
      "name": "floatBufferViews",
      "target": 34962
    },
    {
      "buffer": 0,
      "byteLength": 25344,
      "byteOffset": 10832904,
      "byteStride": 16,
      "name": "floatBufferViews",
      "target": 34962
    }
  ],
  "buffers": [
    {
      "byteLength": 10858248,
      "uri": "scene.bin"
    }
  ],
  "images": [
    {
      "uri": "textures/material_baseColor.jpeg"
    },
    {
      "uri": "textures/material_metallicRoughness.png"
    },
    {
      "uri": "textures/material_normal.png"
    },
    {
      "uri": "textures/material_1_baseColor.jpeg"
    },
    {
      "uri": "textures/material_1_metallicRoughness.png"
    }
  ],
  "materials": [
    {
      "doubleSided": true,
      "name": "material",
      "normalTexture": {
        "index": 2,
        "scale": 0.5470492862454438
      },
      "pbrMetallicRoughness": {
        "baseColorTexture": {
          "index": 0
        },
        "metallicFactor": 0.0,
        "metallicRoughnessTexture": {
          "index": 1
        }
      }
    },
    {
      "doubleSided": true,
      "name": "material_1",
      "pbrMetallicRoughness": {
        "baseColorTexture": {
          "index": 3
        },
        "metallicRoughnessTexture": {
          "index": 4
        }
      }
    }
  ],
  "meshes": [
    {
      "name": "OldSzafa_hull_1_0",
      "primitives": [
        {
          "attributes": {
            "NORMAL": 1,
            "POSITION": 0,
            "TANGENT": 2,
            "TEXCOORD_0": 3,
            "TEXCOORD_1": 4,
            "TEXCOORD_2": 5,
            "TEXCOORD_3": 6,
            "TEXCOORD_4": 7,
            "TEXCOORD_5": 8,
            "TEXCOORD_6": 9,
            "TEXCOORD_7": 10,
            "TEXCOORD_8": 11,
            "TEXCOORD_9": 12
          },
          "indices": 13,
          "material": 0,
          "mode": 4
        }
      ]
    },
    {
      "name": "OldSzafa_Ornaments_2_0",
      "primitives": [
        {
          "attributes": {
            "NORMAL": 15,
            "POSITION": 14,
            "TEXCOORD_0": 16,
            "TEXCOORD_1": 17,
            "TEXCOORD_2": 18,
            "TEXCOORD_3": 19,
            "TEXCOORD_4": 20,
            "TEXCOORD_5": 21,
            "TEXCOORD_6": 22,
            "TEXCOORD_7": 23,
            "TEXCOORD_8": 24,
            "TEXCOORD_9": 25
          },
          "indices": 26,
          "material": 1,
          "mode": 4
        }
      ]
    },
    {
      "name": "OldSzafa_Ornaments_2_0",
      "primitives": [
        {
          "attributes": {
            "NORMAL": 28,
            "POSITION": 27,
            "TEXCOORD_0": 29,
            "TEXCOORD_1": 30,
            "TEXCOORD_2": 31,
            "TEXCOORD_3": 32,
            "TEXCOORD_4": 33,
            "TEXCOORD_5": 34,
            "TEXCOORD_6": 35,
            "TEXCOORD_7": 36,
            "TEXCOORD_8": 37,
            "TEXCOORD_9": 38
          },
          "indices": 39,
          "material": 1,
          "mode": 4
        }
      ]
    }
  ],
  "nodes": [
    {
      "children": [
        1
      ],
      "matrix": [
        1.1207711696624756,
        0.0,
        0.0,
        0.0,
        0.0,
        2.4886119157906963e-16,
        -1.1207711696624756,
        0.0,
        0.0,
        1.1207711696624756,
        2.4886119157906963e-16,
        0.0,
        0.0,
        0.0,
        0.0,
        1.0
      ],
      "name": "Sketchfab_model"
    },
    {
      "children": [
        2
      ],
      "matrix": [
        1.0,
        0.0,
        0.0,
        0.0,
        0.0,
        0.0,
        1.0,
        0.0,
        0.0,
        -1.0,
        0.0,
        0.0,
        0.0,
        0.0,
        0.0,
        1.0
      ],
      "name": "39e45e36097f4a2f9e851e62bb1906c5.fbx"
    },
    {
      "children": [
        3,
        5
      ],
      "name": "RootNode"
    },
    {
      "children": [
        4
      ],
      "matrix": [
        1.0,
        0.0,
        0.0,
        0.0,
        0.0,
        2.220446049250313e-16,
        -1.0,
        0.0,
        0.0,
        1.0,
        2.220446049250313e-16,
        0.0,
        -0.2514718770980835,
        -0.001000046730041504,
        0.4256925582885742,
        1.0
      ],
      "name": "OldSzafa_hull"
    },
    {
      "mesh": 0,
      "name": "OldSzafa_hull_1_0"
    },
    {
      "children": [
        6,
        7
      ],
      "matrix": [
        1.0,
        0.0,
        0.0,
        0.0,
        0.0,
        2.220446049250313e-16,
        -1.0,
        0.0,
        0.0,
        1.0,
        2.220446049250313e-16,
        0.0,
        -0.2999500334262848,
        2.039576530456543,
        1.1916272342205048e-06,
        1.0
      ],
      "name": "OldSzafa_Ornaments"
    },
    {
      "mesh": 1,
      "name": "OldSzafa_Ornaments_2_0"
    },
    {
      "mesh": 2,
      "name": "OldSzafa_Ornaments_2_0"
    }
  ],
  "samplers": [
    {
      "magFilter": 9729,
      "minFilter": 9987,
      "wrapS": 10497,
      "wrapT": 10497
    }
  ],
  "scene": 0,
  "scenes": [
    {
      "name": "Sketchfab_Scene",
      "nodes": [
        0
      ]
    }
  ],
  "textures": [
    {
      "sampler": 0,
      "source": 0
    },
    {
      "sampler": 0,
      "source": 1
    },
    {
      "sampler": 0,
      "source": 2
    },
    {
      "sampler": 0,
      "source": 3
    },
    {
      "sampler": 0,
      "source": 4
    }
  ]
}
