# Blender 3.3.0
# www.blender.org
mtllib wooden_table_02_2k.mtl
o wooden_table_02
v 0.567208 0.736872 0.347106
v 0.561302 0.736872 0.353012
v 0.567208 0.793511 0.347106
v 0.529725 0.799418 0.315529
v 0.561302 0.793511 0.353012
v -0.561302 0.736872 0.353012
v -0.567208 0.736872 0.347106
v -0.529725 0.799418 0.315529
v -0.567208 0.793511 0.347106
v -0.561302 0.793511 0.353012
v 0.561302 0.736872 -0.353012
v 0.567208 0.736872 -0.347106
v 0.529725 0.799418 -0.315529
v 0.567208 0.793511 -0.347106
v 0.561302 0.793511 -0.353012
v -0.567208 0.736872 -0.347106
v -0.561302 0.736872 -0.353012
v -0.529725 0.799418 -0.315529
v -0.561302 0.793511 -0.353012
v -0.567208 0.793511 -0.347106
v -0.561302 0.731601 0.347106
v 0.561302 0.731601 0.347106
v -0.561302 0.731601 -0.347106
v 0.561302 0.731601 -0.347106
v -0.529110 0.773347 0.314780
v 0.529110 0.773347 0.314780
v -0.529110 0.773347 -0.314780
v 0.529110 0.773347 -0.314780
v 0.529110 0.733739 0.314780
v 0.531243 0.731601 0.316922
v -0.531243 0.731601 0.316922
v -0.529110 0.733739 0.314780
v 0.531243 0.731601 -0.316922
v 0.529110 0.733739 -0.314780
v -0.531243 0.731601 -0.316922
v -0.529110 0.733739 -0.314780
v 0.561302 0.799418 0.347106
v -0.561302 0.799418 0.347106
v -0.561302 0.799418 -0.347106
v 0.561302 0.799418 -0.347106
v -0.463096 -0.000125 -0.248199
v -0.458671 0.004075 -0.247986
v -0.462882 0.004075 -0.243775
v -0.421284 0.773744 -0.202356
v -0.417073 0.773744 -0.206568
v -0.508809 0.000125 -0.248191
v -0.508670 0.004075 -0.243775
v -0.512877 0.004323 -0.247973
v -0.486929 0.773744 -0.206568
v -0.482722 0.773744 -0.202356
v -0.463089 0.000125 -0.293912
v -0.462869 0.004323 -0.297981
v -0.458671 0.004075 -0.293774
v -0.417073 0.773744 -0.268005
v -0.421284 0.773744 -0.272213
v -0.508816 0.002601 -0.293919
v -0.512877 0.007054 -0.293781
v -0.508677 0.007054 -0.297980
v -0.482722 0.773744 -0.272213
v -0.486929 0.773744 -0.268005
v -0.463096 -0.000125 0.248199
v -0.458671 0.004075 0.247986
v -0.462882 0.004075 0.243775
v -0.421284 0.773744 0.202357
v -0.417073 0.773744 0.206568
v -0.508809 0.000125 0.248191
v -0.508670 0.004075 0.243775
v -0.512877 0.004323 0.247973
v -0.486929 0.773744 0.206568
v -0.482722 0.773744 0.202357
v -0.463089 0.000125 0.293912
v -0.462869 0.004323 0.297981
v -0.458671 0.004075 0.293774
v -0.417073 0.773744 0.268005
v -0.421284 0.773744 0.272213
v -0.508816 0.002601 0.293919
v -0.512877 0.007054 0.293781
v -0.508677 0.007054 0.297981
v -0.482722 0.773744 0.272213
v -0.486929 0.773744 0.268005
v 0.463096 -0.000125 -0.248199
v 0.458671 0.004074 -0.247986
v 0.462882 0.004075 -0.243775
v 0.421284 0.773744 -0.202357
v 0.417073 0.773744 -0.206568
v 0.508809 0.000125 -0.248191
v 0.508670 0.004075 -0.243775
v 0.512877 0.004323 -0.247973
v 0.486929 0.773744 -0.206568
v 0.482722 0.773744 -0.202357
v 0.463089 0.000125 -0.293912
v 0.462869 0.004323 -0.297981
v 0.458671 0.004074 -0.293774
v 0.417073 0.773744 -0.268005
v 0.421284 0.773744 -0.272213
v 0.508816 0.002601 -0.293919
v 0.512877 0.007054 -0.293781
v 0.508677 0.007054 -0.297981
v 0.482722 0.773744 -0.272213
v 0.486929 0.773744 -0.268005
v 0.463096 -0.000125 0.248199
v 0.458671 0.004074 0.247986
v 0.462882 0.004075 0.243775
v 0.421284 0.773744 0.202356
v 0.417073 0.773744 0.206568
v 0.508809 0.000125 0.248191
v 0.508670 0.004075 0.243775
v 0.512877 0.004323 0.247973
v 0.486929 0.773744 0.206568
v 0.482722 0.773744 0.202356
v 0.463089 0.000125 0.293912
v 0.462869 0.004323 0.297981
v 0.458671 0.004074 0.293774
v 0.417073 0.773744 0.268005
v 0.421284 0.773744 0.272213
v 0.508816 0.002601 0.293919
v 0.512877 0.007054 0.293781
v 0.508677 0.007054 0.297980
v 0.482722 0.773744 0.272213
v 0.486929 0.773744 0.268005
vn 0.9992 -0.0266 -0.0290
vn 1.0000 -0.0011 0.0010
vn 1.0000 0.0019 0.0017
vn -0.0181 -0.0162 -0.9997
vn 0.0014 -0.0015 -1.0000
vn 0.0017 0.0019 -1.0000
vn -0.0000 1.0000 -0.0000
vn 0.0181 -0.0162 0.9997
vn -0.0014 -0.0015 1.0000
vn -0.0017 0.0019 1.0000
vn -0.9992 -0.0266 0.0290
vn -1.0000 -0.0011 -0.0010
vn -1.0000 0.0019 -0.0017
vn 0.0017 -1.0000 0.0017
vn 0.5409 0.4920 0.6822
vn 0.0020 1.0000 0.0020
vn -0.0018 -1.0000 0.0018
vn -0.0019 1.0000 0.0019
vn -0.6822 0.4920 0.5409
vn 0.0018 -1.0000 -0.0018
vn 0.0019 1.0000 -0.0019
vn 0.6822 0.4920 -0.5409
vn -0.0017 -1.0000 -0.0017
vn -0.0020 1.0000 -0.0020
vn -0.5409 0.4920 -0.6822
vn -0.9999 -0.0135 -0.0000
vn -1.0000 -0.0000 -0.0000
vn -0.9999 -0.0152 -0.0000
vn 0.0045 -1.0000 0.0046
vn -0.0045 -1.0000 0.0045
vn -0.0000 -0.0143 0.9999
vn -0.0000 -0.0000 1.0000
vn -0.0000 -0.0153 0.9999
vn -0.0045 -1.0000 -0.0046
vn 0.0045 -1.0000 -0.0045
vn -0.0000 -1.0000 -0.0000
vn 0.9999 -0.0135 -0.0000
vn 1.0000 -0.0000 -0.0000
vn 0.9999 -0.0152 -0.0000
vn -0.0000 -0.0153 -0.9999
vn -0.0000 -0.0143 -0.9999
vn -0.0000 -0.0000 -1.0000
vn 0.9985 -0.0535 -0.0126
vn 0.9987 -0.0504 0.0007
vn 0.9984 -0.0567 -0.0010
vn -0.0122 0.0339 -0.9994
vn 0.0010 0.0306 -0.9995
vn 0.0013 0.0365 -0.9993
vn -0.9996 0.0047 -0.0266
vn -0.9992 0.0346 -0.0206
vn -0.9993 0.0381 0.0015
vn -0.0269 -0.0771 0.9967
vn -0.0127 -0.0533 0.9985
vn -0.0004 -0.0571 0.9984
vn 0.0637 -0.9960 0.0620
vn -0.1003 -0.9941 0.0404
vn 0.0411 -0.9942 -0.0995
vn -0.1231 -0.9850 -0.1213
vn 0.0140 -0.0545 0.9984
vn -0.9994 0.0329 0.0146
vn 0.0146 0.0327 -0.9994
vn 0.9966 -0.0781 0.0260
vn 0.9985 -0.0535 0.0126
vn 0.9984 -0.0574 0.0004
vn -0.0266 0.0044 0.9996
vn -0.0122 0.0340 0.9993
vn 0.0007 0.0372 0.9993
vn -0.7492 0.0116 -0.6622
vn -0.9992 0.0344 0.0206
vn -0.9994 0.0330 -0.0146
vn 0.6654 -0.0384 -0.7455
vn -0.0127 -0.0533 -0.9985
vn 0.0140 -0.0546 -0.9984
vn 0.0620 -0.9960 -0.0637
vn -0.0996 -0.9942 -0.0411
vn -0.6856 -0.5072 -0.5223
vn 0.0404 -0.9941 0.1003
vn -0.1213 -0.9850 0.1231
vn -0.5597 -0.4377 0.7037
vn 0.9985 -0.0540 -0.0000
vn 0.0146 0.0327 0.9994
vn -0.9966 -0.0781 -0.0260
vn -0.9985 -0.0535 -0.0126
vn -0.9984 -0.0574 -0.0004
vn 0.0266 0.0044 -0.9996
vn 0.0122 0.0339 -0.9994
vn -0.0007 0.0372 -0.9993
vn 0.7492 0.0116 0.6622
vn 0.9992 0.0344 -0.0206
vn 0.9994 0.0329 0.0146
vn -0.6654 -0.0384 0.7455
vn 0.0127 -0.0533 0.9985
vn -0.0140 -0.0547 0.9984
vn -0.0620 -0.9960 0.0637
vn 0.0996 -0.9942 0.0411
vn 0.6856 -0.5072 0.5223
vn -0.0404 -0.9941 -0.1003
vn 0.1213 -0.9850 -0.1231
vn 0.5597 -0.4377 -0.7037
vn -0.9985 -0.0540 -0.0000
vn -0.0146 0.0327 -0.9994
vn -0.9985 -0.0535 0.0126
vn -0.9987 -0.0504 -0.0007
vn -0.9984 -0.0567 0.0010
vn 0.0122 0.0339 0.9994
vn -0.0010 0.0306 0.9995
vn -0.0013 0.0365 0.9993
vn 0.9996 0.0047 0.0266
vn 0.9992 0.0344 0.0206
vn 0.9993 0.0381 -0.0015
vn 0.0269 -0.0771 -0.9967
vn 0.0127 -0.0533 -0.9985
vn 0.0004 -0.0571 -0.9984
vn -0.0637 -0.9960 -0.0620
vn 0.1003 -0.9941 -0.0404
vn -0.0411 -0.9942 0.0995
vn 0.1231 -0.9850 0.1213
vn -0.0140 -0.0545 -0.9984
vn 0.9994 0.0329 -0.0146
vn -0.0146 0.0327 0.9994
vn 0.9985 -0.0541 -0.0000
vn -0.9985 -0.0541 -0.0000
vt 0.401672 0.894215
vt 0.665754 0.637544
vt 0.406213 0.894954
vt 0.401654 0.862517
vt 0.611519 0.619791
vt 0.605569 0.004670
vt 0.384711 0.840261
vt 0.406193 0.861757
vt 0.633954 0.637544
vt 0.665648 0.007379
vt 0.666388 0.002840
vt 0.012153 0.781665
vt 0.029925 0.727445
vt 0.011087 0.004670
vt 0.611679 0.024324
vt 0.633174 0.002846
vt 0.012159 0.749877
vt 0.633932 0.007387
vt 0.770625 0.007379
vt 0.771365 0.002840
vt 0.012167 0.894395
vt 0.605569 0.358772
vt 0.029921 0.840165
vt 0.716655 0.024324
vt 0.738150 0.002846
vt 0.012161 0.862608
vt 0.738908 0.007387
vt 0.401653 0.781757
vt 0.406185 0.782501
vt 0.770729 0.637544
vt 0.716494 0.619791
vt 0.011087 0.358772
vt 0.384741 0.727787
vt 0.406213 0.749304
vt 0.738930 0.637544
vt 0.401667 0.750059
vt 0.669880 0.006541
vt 0.012154 0.786116
vt 0.670203 0.637542
vt 0.402511 0.898447
vt 0.775179 0.637542
vt 0.402486 0.785988
vt 0.774855 0.006541
vt 0.012161 0.898847
vt 0.012407 0.719528
vt 0.030343 0.826979
vt 0.710827 0.024621
vt 0.384371 0.939343
vt 0.606199 0.719528
vt 0.711126 0.619427
vt 0.816101 0.619427
vt 0.012407 0.366267
vt 0.384318 0.826869
vt 0.030379 0.939699
vt 0.815803 0.024621
vt 0.606199 0.366267
vt 0.384349 0.917072
vt 0.688861 0.619438
vt 0.687161 0.620638
vt 0.385556 0.915367
vt 0.686854 0.023428
vt 0.029131 0.803011
vt 0.030336 0.804709
vt 0.688564 0.024632
vt 0.791830 0.023428
vt 0.029151 0.915731
vt 0.793540 0.024632
vt 0.030357 0.917428
vt 0.385520 0.802895
vt 0.792136 0.620638
vt 0.384312 0.804599
vt 0.793836 0.619438
vt 0.629261 0.637543
vt 0.402459 0.858019
vt 0.629432 0.006581
vt 0.012153 0.745183
vt 0.402477 0.745559
vt 0.734237 0.637543
vt 0.734408 0.006581
vt 0.012163 0.857914
vt 0.107983 0.983687
vt 0.111358 0.984368
vt 0.413096 0.859196
vt 0.413096 0.724762
vt 0.413096 0.728276
vt 0.108613 0.987108
vt 0.844696 0.728276
vt 0.844696 0.859196
vt 0.844696 0.724763
vt 0.082406 0.983545
vt 0.081894 0.986785
vt 0.413096 0.758374
vt 0.413096 0.761885
vt 0.079217 0.984090
vt 0.844696 0.761885
vt 0.844696 0.758374
vt 0.108067 0.957990
vt 0.108635 0.954717
vt 0.413096 0.825587
vt 0.413096 0.829099
vt 0.111358 0.957486
vt 0.844696 0.829099
vt 0.844696 0.825587
vt 0.082448 0.957934
vt 0.079161 0.957325
vt 0.413096 0.791983
vt 0.413096 0.795490
vt 0.081842 0.954645
vt 0.844696 0.795490
vt 0.844696 0.791983
vt 0.221686 0.960258
vt 0.858557 0.437483
vt 0.992991 0.437483
vt 0.225061 0.959577
vt 0.222316 0.956836
vt 0.989477 0.437483
vt 0.989477 0.005879
vt 0.992991 0.005879
vt 0.858557 0.005879
vt 0.196110 0.960400
vt 0.195597 0.957160
vt 0.959380 0.437483
vt 0.955869 0.437483
vt 0.192920 0.959855
vt 0.955869 0.005879
vt 0.959380 0.005879
vt 0.221771 0.985955
vt 0.222338 0.989228
vt 0.892166 0.437483
vt 0.888655 0.437483
vt 0.225061 0.986459
vt 0.888655 0.005879
vt 0.892166 0.005879
vt 0.196151 0.986011
vt 0.192865 0.986620
vt 0.925771 0.437483
vt 0.922263 0.437483
vt 0.195545 0.989300
vt 0.922263 0.005879
vt 0.925771 0.005879
vt 0.054205 0.960486
vt 0.991346 0.441373
vt 0.856912 0.441373
vt 0.057579 0.959805
vt 0.054834 0.957064
vt 0.860426 0.441373
vt 0.860426 0.872978
vt 0.856912 0.872978
vt 0.991346 0.872978
vt 0.028628 0.960627
vt 0.028115 0.957387
vt 0.890524 0.441373
vt 0.894035 0.441373
vt 0.025438 0.960082
vt 0.894035 0.872978
vt 0.890524 0.872978
vt 0.054289 0.986182
vt 0.054856 0.989456
vt 0.957737 0.441373
vt 0.961249 0.441373
vt 0.057579 0.986686
vt 0.961249 0.872978
vt 0.957737 0.872978
vt 0.028669 0.986238
vt 0.025383 0.986847
vt 0.924132 0.441373
vt 0.927640 0.441373
vt 0.028063 0.989527
vt 0.927640 0.872978
vt 0.924132 0.872978
vt 0.163985 0.985789
vt 0.167323 0.986440
vt 0.845719 0.863233
vt 0.845719 0.997667
vt 0.845719 0.994153
vt 0.164631 0.989129
vt 0.414117 0.994153
vt 0.414117 0.863233
vt 0.414117 0.997667
vt 0.138369 0.985797
vt 0.137835 0.989092
vt 0.845719 0.964055
vt 0.845719 0.960544
vt 0.135147 0.986348
vt 0.414117 0.960544
vt 0.414117 0.964055
vt 0.164045 0.960168
vt 0.164650 0.956930
vt 0.845719 0.896842
vt 0.845719 0.893331
vt 0.167323 0.959689
vt 0.414117 0.893331
vt 0.414117 0.896842
vt 0.138385 0.960134
vt 0.135092 0.959522
vt 0.845719 0.930447
vt 0.845719 0.926939
vt 0.137781 0.956836
vt 0.414117 0.926939
vt 0.414117 0.930447
s 1
usemtl wooden_table_02
f 14/26/1 1/1/2 12/21/3
f 19/35/4 11/19/5 17/30/6
f 18/32/7 4/6/7 13/22/7
f 5/9/8 6/10/9 2/2/10
f 9/17/11 16/28/12 7/12/13
f 22/40/14 1/1/2 2/3/10
f 3/4/15 37/74/16 5/8/8
f 21/37/17 6/10/9 7/11/13
f 38/75/18 9/16/11 10/18/19
f 24/43/20 11/19/5 12/20/3
f 40/79/21 14/25/1 15/27/22
f 23/42/23 16/28/12 17/29/6
f 39/77/24 19/34/4 20/36/25
f 22/39/14 6/10/9 21/37/17
f 3/4/15 2/3/10 1/1/2
f 38/75/18 5/9/8 37/73/16
f 7/11/13 10/18/19 9/16/11
f 21/38/17 16/28/12 23/42/23
f 39/77/24 9/17/11 38/76/18
f 17/29/6 20/36/25 19/34/4
f 23/41/23 11/19/5 24/43/20
f 40/79/21 19/35/4 39/78/24
f 12/20/3 15/27/22 14/25/1
f 24/44/20 1/1/2 22/40/14
f 37/74/16 14/26/1 40/80/21
f 29/57/26 28/54/27 34/68/28
f 35/70/29 24/43/20 33/65/30
f 34/67/31 27/51/32 36/72/33
f 30/59/34 21/37/17 31/61/35
f 27/52/36 26/49/36 25/45/36
f 33/66/30 22/40/14 30/60/34
f 36/71/37 25/46/38 32/63/39
f 31/62/35 23/42/23 35/69/29
f 29/58/40 31/61/35 32/64/41
f 32/63/39 35/69/29 36/71/37
f 36/72/33 33/65/30 34/67/31
f 34/68/28 30/60/34 29/57/26
f 32/64/41 26/50/42 29/58/40
f 8/15/7 37/73/16 4/5/7
f 18/33/7 38/76/18 8/13/7
f 13/24/7 39/78/24 18/31/7
f 4/7/7 40/80/21 13/23/7
f 54/102/43 42/83/44 53/100/45
f 59/109/46 52/99/47 58/107/48
f 48/93/49 60/110/50 57/106/51
f 43/85/52 50/96/53 47/92/54
f 41/81/55 42/82/44 43/86/52
f 46/90/56 47/91/54 48/94/49
f 51/97/57 52/98/47 53/101/45
f 56/104/58 57/105/51 58/108/48
f 41/81/55 47/91/54 46/90/56
f 42/84/44 44/87/59 43/85/52
f 49/95/60 47/92/54 50/96/53
f 56/104/58 48/94/49 57/105/51
f 58/107/48 60/110/50 59/109/46
f 56/104/58 52/98/47 51/97/57
f 53/100/45 55/103/61 54/102/43
f 41/81/55 53/101/45 42/82/44
f 46/90/56 51/97/57 41/81/55
f 62/112/62 74/132/63 73/130/64
f 72/129/65 79/139/66 78/137/67
f 68/123/68 80/140/69 69/125/70
f 63/116/71 70/126/72 64/117/73
f 61/111/74 63/115/71 62/114/62
f 66/120/75 68/124/68 67/121/76
f 71/127/77 73/131/64 72/128/65
f 76/134/78 78/138/67 77/135/79
f 67/121/76 61/111/74 66/120/75
f 62/113/62 64/117/73 65/118/80
f 69/125/70 67/122/76 68/123/68
f 76/134/78 68/124/68 66/120/75
f 80/140/69 78/137/67 79/139/66
f 72/128/65 76/134/78 71/127/77
f 75/133/81 73/130/64 74/132/63
f 61/111/74 73/131/64 71/127/77
f 66/120/75 71/127/77 76/134/78
f 82/142/82 94/162/83 93/160/84
f 92/159/85 99/169/86 98/167/87
f 88/153/88 100/170/89 89/155/90
f 83/146/91 90/156/92 84/147/93
f 81/141/94 83/145/91 82/144/82
f 86/150/95 88/154/88 87/151/96
f 91/157/97 93/161/84 92/158/85
f 96/164/98 98/168/87 97/165/99
f 87/151/96 81/141/94 86/150/95
f 82/143/82 84/147/93 85/148/100
f 89/155/90 87/152/96 88/153/88
f 96/164/98 88/154/88 86/150/95
f 100/170/89 98/167/87 99/169/86
f 92/158/85 96/164/98 91/157/97
f 95/163/101 93/160/84 94/162/83
f 81/141/94 93/161/84 91/157/97
f 86/150/95 91/157/97 96/164/98
f 114/192/102 102/173/103 113/190/104
f 119/199/105 112/189/106 118/197/107
f 108/183/108 120/200/109 117/196/110
f 103/175/111 110/186/112 107/182/113
f 101/171/114 102/172/103 103/176/111
f 106/180/115 107/181/113 108/184/108
f 111/187/116 112/188/106 113/191/104
f 116/194/117 117/195/110 118/198/107
f 101/171/114 107/181/113 106/180/115
f 102/174/103 104/177/118 103/175/111
f 109/185/119 107/182/113 110/186/112
f 116/194/117 108/184/108 117/195/110
f 118/197/107 120/200/109 119/199/105
f 116/194/117 112/188/106 111/187/116
f 113/190/104 115/193/120 114/192/102
f 101/171/114 113/191/104 102/172/103
f 106/180/115 111/187/116 101/171/114
f 14/26/1 3/4/15 1/1/2
f 19/35/4 15/27/22 11/19/5
f 18/32/7 8/14/7 4/6/7
f 5/9/8 10/18/19 6/10/9
f 9/17/11 20/36/25 16/28/12
f 22/39/14 2/2/10 6/10/9
f 3/4/15 5/8/8 2/3/10
f 38/75/18 10/18/19 5/9/8
f 7/11/13 6/10/9 10/18/19
f 21/38/17 7/12/13 16/28/12
f 39/77/24 20/36/25 9/17/11
f 17/29/6 16/28/12 20/36/25
f 23/41/23 17/30/6 11/19/5
f 40/79/21 15/27/22 19/35/4
f 12/20/3 11/19/5 15/27/22
f 24/44/20 12/21/3 1/1/2
f 37/74/16 3/4/15 14/26/1
f 29/57/26 26/48/27 28/54/27
f 35/70/29 23/41/23 24/43/20
f 34/67/31 28/55/32 27/51/32
f 30/59/34 22/39/14 21/37/17
f 27/52/36 28/56/36 26/49/36
f 33/66/30 24/44/20 22/40/14
f 36/71/37 27/53/38 25/46/38
f 31/62/35 21/38/17 23/42/23
f 29/58/40 30/59/34 31/61/35
f 32/63/39 31/62/35 35/69/29
f 36/72/33 35/70/29 33/65/30
f 34/68/28 33/66/30 30/60/34
f 32/64/41 25/47/42 26/50/42
f 8/15/7 38/75/18 37/73/16
f 18/33/7 39/77/24 38/76/18
f 13/24/7 40/79/21 39/78/24
f 4/7/7 37/74/16 40/80/21
f 54/102/43 45/88/121 42/83/44
f 59/109/46 55/103/61 52/99/47
f 48/93/49 49/95/60 60/110/50
f 43/85/52 44/87/59 50/96/53
f 41/81/55 43/86/52 47/91/54
f 42/84/44 45/89/121 44/87/59
f 49/95/60 48/93/49 47/92/54
f 56/104/58 46/90/56 48/94/49
f 58/107/48 57/106/51 60/110/50
f 56/104/58 58/108/48 52/98/47
f 53/100/45 52/99/47 55/103/61
f 41/81/55 51/97/57 53/101/45
f 46/90/56 56/104/58 51/97/57
f 62/112/62 65/119/80 74/132/63
f 72/129/65 75/133/81 79/139/66
f 68/123/68 77/136/79 80/140/69
f 63/116/71 67/122/76 70/126/72
f 67/121/76 63/115/71 61/111/74
f 62/113/62 63/116/71 64/117/73
f 69/125/70 70/126/72 67/122/76
f 76/134/78 77/135/79 68/124/68
f 80/140/69 77/136/79 78/137/67
f 72/128/65 78/138/67 76/134/78
f 75/133/81 72/129/65 73/130/64
f 61/111/74 62/114/62 73/131/64
f 66/120/75 61/111/74 71/127/77
f 82/142/82 85/149/100 94/162/83
f 92/159/85 95/163/101 99/169/86
f 88/153/88 97/166/99 100/170/89
f 83/146/91 87/152/96 90/156/92
f 87/151/96 83/145/91 81/141/94
f 82/143/82 83/146/91 84/147/93
f 89/155/90 90/156/92 87/152/96
f 96/164/98 97/165/99 88/154/88
f 100/170/89 97/166/99 98/167/87
f 92/158/85 98/168/87 96/164/98
f 95/163/101 92/159/85 93/160/84
f 81/141/94 82/144/82 93/161/84
f 86/150/95 81/141/94 91/157/97
f 114/192/102 105/178/122 102/173/103
f 119/199/105 115/193/120 112/189/106
f 108/183/108 109/185/119 120/200/109
f 103/175/111 104/177/118 110/186/112
f 101/171/114 103/176/111 107/181/113
f 102/174/103 105/179/122 104/177/118
f 109/185/119 108/183/108 107/182/113
f 116/194/117 106/180/115 108/184/108
f 118/197/107 117/196/110 120/200/109
f 116/194/117 118/198/107 112/188/106
f 113/190/104 112/189/106 115/193/120
f 101/171/114 111/187/116 113/191/104
f 106/180/115 116/194/117 111/187/116
