{
  "accessors": [
    {
      "bufferView": 1,
      "componentType": 5126,
      "count": 1736,
      "max": [
        1.7000000476837158,
        1.0,
        0.07485999912023544
      ],
      "min": [
        -1.7000000476837158,
        -1.0294950008392334,
        -0.176937997341156
      ],
      "type": "VEC3"
    },
    {
      "bufferView": 1,
      "byteOffset": 20832,
      "componentType": 5126,
      "count": 1736,
      "max": [
        1.0,
        1.0,
        1.0
      ],
      "min": [
        -1.0,
        -1.0,
        -1.0
      ],
      "type": "VEC3"
    },
    {
      "bufferView": 0,
      "componentType": 5125,
      "count": 2652,
      "type": "SCALAR"
    }
  ],
  "asset": {
    "extras": {
      "author": "Gamespace (https://sketchfab.com/ethan-barnes)",
      "license": "CC-BY-4.0 (http://creativecommons.org/licenses/by/4.0/)",
      "source": "https://sketchfab.com/3d-models/tv-0a07d88a6bb64475a0b043678a73b319",
      "title": "TV"
    },
    "generator": "Sketchfab-12.64.0",
    "version": "2.0"
  },
  "bufferViews": [
    {
      "buffer": 0,
      "byteLength": 10608,
      "name": "floatBufferViews",
      "target": 34963
    },
    {
      "buffer": 0,
      "byteLength": 41664,
      "byteOffset": 10608,
      "byteStride": 12,
      "name": "floatBufferViews",
      "target": 34962
    }
  ],
  "buffers": [
    {
      "byteLength": 52272,
      "uri": "scene.bin"
    }
  ],
  "materials": [
    {
      "doubleSided": true,
      "name": "Scene_-_Root",
      "pbrMetallicRoughness": {
        "baseColorFactor": [
          0.0,
          0.0,
          0.0,
          1.0
        ],
        "metallicFactor": 0.6114710365853658,
        "roughnessFactor": 0.6
      }
    }
  ],
  "meshes": [
    {
      "name": "TV__0",
      "primitives": [
        {
          "attributes": {
            "NORMAL": 1,
            "POSITION": 0
          },
          "indices": 2,
          "material": 0,
          "mode": 4
        }
      ]
    }
  ],
  "nodes": [
    {
      "children": [
        1
      ],
      "matrix": [
        0.0055636074393987656,
        0.0,
        0.0,
        0.0,
        0.0,
        1.235369015839264e-18,
        -0.0055636074393987656,
        0.0,
        0.0,
        0.0055636074393987656,
        1.235369015839264e-18,
        0.0,
        0.0,
        -6.289878911047723e-07,
        6.508611477329396e-06,
        1.0
      ],
      "name": "Sketchfab_model"
    },
    {
      "children": [
        2
      ],
      "matrix": [
        1.0,
        0.0,
        0.0,
        0.0,
        0.0,
        0.0,
        1.0,
        0.0,
        0.0,
        -1.0,
        0.0,
        0.0,
        0.0,
        0.0,
        0.0,
        1.0
      ],
      "name": "fdf9a253846f42b69ace4888661a9175.fbx"
    },
    {
      "children": [
        3
      ],
      "name": "RootNode"
    },
    {
      "children": [
        4
      ],
      "matrix": [
        100.0,
        0.0,
        0.0,
        0.0,
        0.0,
        99.99999999999866,
        1.6292067073209114e-05,
        0.0,
        0.0,
        -1.6292067073209114e-05,
        99.99999999999866,
        0.0,
        0.0,
        0.0,
        0.0,
        1.0
      ],
      "name": "TV"
    },
    {
      "mesh": 0,
      "name": "TV__0"
    }
  ],
  "scene": 0,
  "scenes": [
    {
      "name": "Sketchfab_Scene",
      "nodes": [
        0
      ]
    }
  ]
}
